<?xml version="1.0" encoding="utf-8"?>
<!-- Generator: Adobe Illustrator 19.0.0, SVG Export Plug-In . SVG Version: 6.00 Build 0)  -->
<svg version="1.1" id="Layer_1" xmlns="http://www.w3.org/2000/svg" xmlns:xlink="http://www.w3.org/1999/xlink" x="0px" y="0px"
	 viewBox="0 0 500 500" style="enable-background:new 0 0 500 500;" xml:space="preserve">
<style type="text/css">
	.st0{fill:#FFFFFF;}
	.st1{fill:#3F3F3F;}
	.st2{fill:#0AB3E5;}
</style>
<g id="XMLID_1_">
	<path id="XMLID_3_" class="st0" d="M250,422.5c-95.4,0-172.5-77.1-172.5-172.5S154.6,77.5,250,77.5S422.5,154.6,422.5,250
		S345.4,422.5,250,422.5z"/>
	<path id="XMLID_6_" class="st1" d="M250,88.2c89.6,0,161.8,73,161.8,161.8S339.6,411.8,250,411.8S88.2,339.6,88.2,250
		S160.4,88.2,250,88.2z M250,67.5C148.8,67.5,67.5,148.8,67.5,250S148.8,432.5,250,432.5S432.5,351.2,432.5,250S349.5,67.5,250,67.5
		z"/>
	<path id="XMLID_7_" class="st2" d="M173.7,237.6l33.2,26.5l45.6-74.7l58.1,92.9l31.5-24.9l34.8,51.4c8.3-18.3,14.9-39.8,14.9-60.6
		c0-78.8-62.2-141-141-141s-143.5,63.9-143.5,141c0,24.9,6.6,45.6,16.6,66.4L173.7,237.6z"/>
</g>
</svg>
